<svg width="24" height="24" viewBox="0 0 24 24" fill="none" xmlns="http://www.w3.org/2000/svg">
<path d="M12.7096 14.8249L16.9496 10.5849C17.0433 10.4919 17.1177 10.3813 17.1685 10.2595C17.2193 10.1376 17.2454 10.0069 17.2454 9.87488C17.2454 9.74287 17.2193 9.61216 17.1685 9.4903C17.1177 9.36844 17.0433 9.25784 16.9496 9.16488C16.7622 8.97863 16.5088 8.87408 16.2446 8.87408C15.9804 8.87408 15.727 8.97863 15.5396 9.16488L11.9996 12.7049L8.4596 9.16488C8.27224 8.97863 8.01878 8.87408 7.7546 8.87408C7.49041 8.87408 7.23696 8.97863 7.0496 9.16488C6.95692 9.25832 6.88359 9.36913 6.83383 9.49097C6.78406 9.61281 6.75884 9.74327 6.7596 9.87488C6.75884 10.0065 6.78406 10.1369 6.83383 10.2588C6.88359 10.3806 6.95692 10.4914 7.0496 10.5849L11.2896 14.8249C11.3826 14.9186 11.4932 14.993 11.615 15.0438C11.7369 15.0945 11.8676 15.1207 11.9996 15.1207C12.1316 15.1207 12.2623 15.0945 12.3842 15.0438C12.506 14.993 12.6166 14.9186 12.7096 14.8249Z" fill="#191407"/>
</svg>
