<svg width="505" height="506" viewBox="0 0 505 506" fill="none" xmlns="http://www.w3.org/2000/svg">
<path d="M0 91C0 84.3726 5.37258 79 12 79H413C419.627 79 425 84.3726 425 91V356H0V91Z" fill="#D9D9D9"/>
<path d="M16 126C16 119.373 21.3726 114 28 114H396C402.627 114 408 119.373 408 126V358H16V126Z" fill="#F0F0F0"/>
<circle cx="37" cy="96" r="6" fill="white"/>
<circle cx="55" cy="96" r="6" fill="white"/>
<circle cx="73" cy="96" r="6" fill="white"/>
<rect x="137" y="239" width="74" height="25" fill="#D9D9D9"/>
<rect x="137" y="143" width="74" height="25" fill="#D9D9D9"/>
<rect x="137" y="271" width="74" height="25" fill="#D9D9D9"/>
<rect x="137" y="175" width="74" height="25" fill="#D9D9D9"/>
<rect x="137" y="303" width="74" height="25" fill="#D9D9D9"/>
<rect x="137" y="207" width="74" height="25" fill="#D9D9D9"/>
<rect x="219" y="239" width="73" height="25" fill="#D9D9D9"/>
<rect x="219" y="143" width="73" height="25" fill="#D9D9D9"/>
<rect x="219" y="271" width="73" height="25" fill="#D9D9D9"/>
<rect x="219" y="175" width="73" height="25" fill="#D9D9D9"/>
<rect x="219" y="303" width="73" height="25" fill="#D9D9D9"/>
<rect x="219" y="207" width="73" height="25" fill="#D9D9D9"/>
<rect x="300" y="239" width="74" height="25" fill="#D9D9D9"/>
<rect x="300" y="143" width="74" height="25" fill="#D9D9D9"/>
<rect x="300" y="271" width="74" height="25" fill="#D9D9D9"/>
<rect x="300" y="175" width="74" height="25" fill="#D9D9D9"/>
<rect x="300" y="303" width="74" height="25" fill="#D9D9D9"/>
<rect x="300" y="207" width="74" height="25" fill="#D9D9D9"/>
<rect x="31" y="143" width="61" height="7" fill="#D9D9D9"/>
<rect x="31" y="158" width="61" height="7" fill="#D9D9D9"/>
<rect x="31" y="173" width="61" height="7" fill="#D9D9D9"/>
<rect x="31" y="188" width="61" height="7" fill="#D9D9D9"/>
<rect x="31" y="203" width="61" height="7" fill="#D9D9D9"/>
<rect x="31" y="285" width="61" height="7" fill="#D9D9D9"/>
<rect x="31" y="218" width="61" height="7" fill="#D9D9D9"/>
<rect x="31" y="300" width="61" height="7" fill="#D9D9D9"/>
<g filter="url(#filter0_dd_121_378)">
<rect x="230" y="336" width="195" height="39" rx="12" fill="white"/>
</g>
<g filter="url(#filter1_dd_121_378)">
<rect x="106" y="42" width="212" height="74" rx="12" fill="white"/>
</g>
<g filter="url(#filter2_dd_121_378)">
<circle cx="212" cy="356" r="41" fill="#EBEBEB"/>
</g>
<circle cx="212.5" cy="355.5" r="31.5" fill="white"/>
<path opacity="0.6" d="M266.587 360L268.997 352.8H270.237L272.647 360H271.722L269.467 353.32H269.747L267.512 360H266.587ZM267.747 358.315V357.48H271.487V358.315H267.747ZM276.162 360.15C275.658 360.15 275.227 360.025 274.867 359.775C274.507 359.522 274.228 359.18 274.032 358.75C273.838 358.32 273.742 357.835 273.742 357.295C273.742 356.755 273.838 356.27 274.032 355.84C274.228 355.41 274.507 355.072 274.867 354.825C275.227 354.575 275.657 354.45 276.157 354.45C276.667 354.45 277.095 354.573 277.442 354.82C277.788 355.067 278.05 355.405 278.227 355.835C278.407 356.265 278.497 356.752 278.497 357.295C278.497 357.832 278.407 358.317 278.227 358.75C278.05 359.18 277.788 359.522 277.442 359.775C277.095 360.025 276.668 360.15 276.162 360.15ZM276.272 359.335C276.635 359.335 276.933 359.248 277.167 359.075C277.4 358.898 277.572 358.657 277.682 358.35C277.795 358.04 277.852 357.688 277.852 357.295C277.852 356.895 277.795 356.543 277.682 356.24C277.572 355.933 277.402 355.695 277.172 355.525C276.942 355.352 276.65 355.265 276.297 355.265C275.93 355.265 275.627 355.355 275.387 355.535C275.15 355.715 274.973 355.958 274.857 356.265C274.743 356.572 274.687 356.915 274.687 357.295C274.687 357.678 274.745 358.025 274.862 358.335C274.978 358.642 275.153 358.885 275.387 359.065C275.623 359.245 275.918 359.335 276.272 359.335ZM277.852 360V356.025H277.752V352.8H278.647V360H277.852ZM282.668 360.15C282.164 360.15 281.733 360.025 281.373 359.775C281.013 359.522 280.734 359.18 280.538 358.75C280.344 358.32 280.248 357.835 280.248 357.295C280.248 356.755 280.344 356.27 280.538 355.84C280.734 355.41 281.013 355.072 281.373 354.825C281.733 354.575 282.163 354.45 282.663 354.45C283.173 354.45 283.601 354.573 283.948 354.82C284.294 355.067 284.556 355.405 284.733 355.835C284.913 356.265 285.003 356.752 285.003 357.295C285.003 357.832 284.913 358.317 284.733 358.75C284.556 359.18 284.294 359.522 283.948 359.775C283.601 360.025 283.174 360.15 282.668 360.15ZM282.778 359.335C283.141 359.335 283.439 359.248 283.673 359.075C283.906 358.898 284.078 358.657 284.188 358.35C284.301 358.04 284.358 357.688 284.358 357.295C284.358 356.895 284.301 356.543 284.188 356.24C284.078 355.933 283.908 355.695 283.678 355.525C283.448 355.352 283.156 355.265 282.803 355.265C282.436 355.265 282.133 355.355 281.893 355.535C281.656 355.715 281.479 355.958 281.363 356.265C281.249 356.572 281.193 356.915 281.193 357.295C281.193 357.678 281.251 358.025 281.368 358.335C281.484 358.642 281.659 358.885 281.893 359.065C282.129 359.245 282.424 359.335 282.778 359.335ZM284.358 360V356.025H284.258V352.8H285.153V360H284.358ZM291.895 360.15C291.365 360.15 290.902 360.033 290.505 359.8C290.112 359.563 289.805 359.235 289.585 358.815C289.365 358.392 289.255 357.898 289.255 357.335C289.255 356.745 289.364 356.235 289.58 355.805C289.797 355.372 290.099 355.038 290.485 354.805C290.875 354.568 291.332 354.45 291.855 354.45C292.399 354.45 292.86 354.575 293.24 354.825C293.624 355.075 293.91 355.432 294.1 355.895C294.294 356.358 294.377 356.91 294.35 357.55H293.45V357.23C293.44 356.567 293.305 356.072 293.045 355.745C292.785 355.415 292.399 355.25 291.885 355.25C291.335 355.25 290.917 355.427 290.63 355.78C290.344 356.133 290.2 356.64 290.2 357.3C290.2 357.937 290.344 358.43 290.63 358.78C290.917 359.13 291.325 359.305 291.855 359.305C292.212 359.305 292.522 359.223 292.785 359.06C293.049 358.897 293.255 358.662 293.405 358.355L294.26 358.65C294.05 359.127 293.734 359.497 293.31 359.76C292.89 360.02 292.419 360.15 291.895 360.15ZM289.9 357.55V356.835H293.89V357.55H289.9ZM302.272 360L302.277 356.545C302.277 356.142 302.169 355.827 301.952 355.6C301.739 355.37 301.461 355.255 301.117 355.255C300.917 355.255 300.727 355.302 300.547 355.395C300.367 355.485 300.221 355.628 300.107 355.825C299.994 356.018 299.937 356.267 299.937 356.57L299.467 356.38C299.461 355.997 299.539 355.662 299.702 355.375C299.869 355.085 300.096 354.86 300.382 354.7C300.669 354.54 300.992 354.46 301.352 354.46C301.916 354.46 302.359 354.632 302.682 354.975C303.006 355.315 303.167 355.773 303.167 356.35L303.162 360H302.272ZM295.812 360V354.6H296.607V356.045H296.707V360H295.812ZM299.047 360L299.052 356.58C299.052 356.167 298.946 355.843 298.732 355.61C298.519 355.373 298.236 355.255 297.882 355.255C297.532 355.255 297.249 355.375 297.032 355.615C296.816 355.855 296.707 356.173 296.707 356.57L296.237 356.29C296.237 355.94 296.321 355.627 296.487 355.35C296.654 355.073 296.881 354.857 297.167 354.7C297.454 354.54 297.779 354.46 298.142 354.46C298.506 354.46 298.822 354.537 299.092 354.69C299.362 354.843 299.571 355.063 299.717 355.35C299.864 355.633 299.937 355.972 299.937 356.365L299.932 360H299.047ZM307.45 360.15C306.943 360.15 306.516 360.025 306.17 359.775C305.823 359.522 305.56 359.18 305.38 358.75C305.203 358.317 305.115 357.832 305.115 357.295C305.115 356.752 305.203 356.265 305.38 355.835C305.56 355.405 305.823 355.067 306.17 354.82C306.52 354.573 306.948 354.45 307.455 354.45C307.955 354.45 308.385 354.575 308.745 354.825C309.108 355.072 309.386 355.41 309.58 355.84C309.773 356.27 309.87 356.755 309.87 357.295C309.87 357.835 309.773 358.32 309.58 358.75C309.386 359.18 309.108 359.522 308.745 359.775C308.385 360.025 307.953 360.15 307.45 360.15ZM304.965 362.4V354.6H305.76V358.575H305.86V362.4H304.965ZM307.34 359.335C307.696 359.335 307.991 359.245 308.225 359.065C308.458 358.885 308.633 358.642 308.75 358.335C308.866 358.025 308.925 357.678 308.925 357.295C308.925 356.915 308.866 356.572 308.75 356.265C308.636 355.958 308.46 355.715 308.22 355.535C307.983 355.355 307.681 355.265 307.315 355.265C306.965 355.265 306.675 355.352 306.445 355.525C306.215 355.695 306.043 355.933 305.93 356.24C305.816 356.543 305.76 356.895 305.76 357.295C305.76 357.688 305.815 358.04 305.925 358.35C306.038 358.657 306.211 358.898 306.445 359.075C306.678 359.248 306.976 359.335 307.34 359.335ZM311.566 360V352.65H312.456V360H311.566ZM316.756 360.15C316.219 360.15 315.756 360.028 315.366 359.785C314.979 359.542 314.681 359.205 314.471 358.775C314.261 358.345 314.156 357.852 314.156 357.295C314.156 356.728 314.263 356.232 314.476 355.805C314.689 355.378 314.991 355.047 315.381 354.81C315.771 354.57 316.229 354.45 316.756 354.45C317.296 354.45 317.761 354.572 318.151 354.815C318.541 355.055 318.839 355.39 319.046 355.82C319.256 356.247 319.361 356.738 319.361 357.295C319.361 357.858 319.256 358.355 319.046 358.785C318.836 359.212 318.536 359.547 318.146 359.79C317.756 360.03 317.293 360.15 316.756 360.15ZM316.756 359.305C317.316 359.305 317.733 359.118 318.006 358.745C318.279 358.372 318.416 357.888 318.416 357.295C318.416 356.685 318.278 356.2 318.001 355.84C317.724 355.477 317.309 355.295 316.756 355.295C316.379 355.295 316.069 355.38 315.826 355.55C315.583 355.72 315.401 355.955 315.281 356.255C315.161 356.555 315.101 356.902 315.101 357.295C315.101 357.902 315.241 358.388 315.521 358.755C315.801 359.122 316.213 359.305 316.756 359.305ZM321.516 362.4L322.561 359.56L322.576 360.4L320.216 354.6H321.151L323.001 359.265H322.681L324.416 354.6H325.321L322.381 362.4H321.516ZM328.792 360.15C328.262 360.15 327.799 360.033 327.402 359.8C327.009 359.563 326.702 359.235 326.482 358.815C326.262 358.392 326.152 357.898 326.152 357.335C326.152 356.745 326.26 356.235 326.477 355.805C326.694 355.372 326.995 355.038 327.382 354.805C327.772 354.568 328.229 354.45 328.752 354.45C329.295 354.45 329.757 354.575 330.137 354.825C330.52 355.075 330.807 355.432 330.997 355.895C331.19 356.358 331.274 356.91 331.247 357.55H330.347V357.23C330.337 356.567 330.202 356.072 329.942 355.745C329.682 355.415 329.295 355.25 328.782 355.25C328.232 355.25 327.814 355.427 327.527 355.78C327.24 356.133 327.097 356.64 327.097 357.3C327.097 357.937 327.24 358.43 327.527 358.78C327.814 359.13 328.222 359.305 328.752 359.305C329.109 359.305 329.419 359.223 329.682 359.06C329.945 358.897 330.152 358.662 330.302 358.355L331.157 358.65C330.947 359.127 330.63 359.497 330.207 359.76C329.787 360.02 329.315 360.15 328.792 360.15ZM326.797 357.55V356.835H330.787V357.55H326.797ZM335.2 360.15C334.67 360.15 334.207 360.033 333.81 359.8C333.417 359.563 333.11 359.235 332.89 358.815C332.67 358.392 332.56 357.898 332.56 357.335C332.56 356.745 332.668 356.235 332.885 355.805C333.102 355.372 333.403 355.038 333.79 354.805C334.18 354.568 334.637 354.45 335.16 354.45C335.703 354.45 336.165 354.575 336.545 354.825C336.928 355.075 337.215 355.432 337.405 355.895C337.598 356.358 337.682 356.91 337.655 357.55H336.755V357.23C336.745 356.567 336.61 356.072 336.35 355.745C336.09 355.415 335.703 355.25 335.19 355.25C334.64 355.25 334.222 355.427 333.935 355.78C333.648 356.133 333.505 356.64 333.505 357.3C333.505 357.937 333.648 358.43 333.935 358.78C334.222 359.13 334.63 359.305 335.16 359.305C335.517 359.305 335.827 359.223 336.09 359.06C336.353 358.897 336.56 358.662 336.71 358.355L337.565 358.65C337.355 359.127 337.038 359.497 336.615 359.76C336.195 360.02 335.723 360.15 335.2 360.15ZM333.205 357.55V356.835H337.195V357.55H333.205ZM344.045 360.15C343.499 360.15 343.034 360.028 342.65 359.785C342.27 359.538 341.98 359.2 341.78 358.77C341.58 358.34 341.477 357.85 341.47 357.3C341.477 356.737 341.582 356.242 341.785 355.815C341.992 355.385 342.287 355.05 342.67 354.81C343.054 354.57 343.515 354.45 344.055 354.45C344.625 354.45 345.115 354.59 345.525 354.87C345.939 355.15 346.215 355.533 346.355 356.02L345.475 356.285C345.362 355.972 345.177 355.728 344.92 355.555C344.667 355.382 344.375 355.295 344.045 355.295C343.675 355.295 343.37 355.382 343.13 355.555C342.89 355.725 342.712 355.962 342.595 356.265C342.479 356.565 342.419 356.91 342.415 357.3C342.422 357.9 342.56 358.385 342.83 358.755C343.104 359.122 343.509 359.305 344.045 359.305C344.399 359.305 344.692 359.225 344.925 359.065C345.159 358.902 345.335 358.667 345.455 358.36L346.355 358.595C346.169 359.098 345.877 359.483 345.48 359.75C345.084 360.017 344.605 360.15 344.045 360.15ZM347.876 360V354.6H348.671V355.905L348.541 355.735C348.604 355.568 348.686 355.415 348.786 355.275C348.889 355.135 349.004 355.02 349.131 354.93C349.271 354.817 349.429 354.73 349.606 354.67C349.782 354.61 349.962 354.575 350.146 354.565C350.329 354.552 350.501 354.563 350.661 354.6V355.435C350.474 355.385 350.269 355.372 350.046 355.395C349.822 355.418 349.616 355.5 349.426 355.64C349.252 355.763 349.117 355.913 349.021 356.09C348.927 356.267 348.862 356.458 348.826 356.665C348.789 356.868 348.771 357.077 348.771 357.29V360H347.876ZM354.349 360.15C353.819 360.15 353.355 360.033 352.959 359.8C352.565 359.563 352.259 359.235 352.039 358.815C351.819 358.392 351.709 357.898 351.709 357.335C351.709 356.745 351.817 356.235 352.034 355.805C352.25 355.372 352.552 355.038 352.939 354.805C353.329 354.568 353.785 354.45 354.309 354.45C354.852 354.45 355.314 354.575 355.694 354.825C356.077 355.075 356.364 355.432 356.554 355.895C356.747 356.358 356.83 356.91 356.804 357.55H355.904V357.23C355.894 356.567 355.759 356.072 355.499 355.745C355.239 355.415 354.852 355.25 354.339 355.25C353.789 355.25 353.37 355.427 353.084 355.78C352.797 356.133 352.654 356.64 352.654 357.3C352.654 357.937 352.797 358.43 353.084 358.78C353.37 359.13 353.779 359.305 354.309 359.305C354.665 359.305 354.975 359.223 355.239 359.06C355.502 358.897 355.709 358.662 355.859 358.355L356.714 358.65C356.504 359.127 356.187 359.497 355.764 359.76C355.344 360.02 354.872 360.15 354.349 360.15ZM352.354 357.55V356.835H356.344V357.55H352.354ZM359.854 360.15C359.451 360.15 359.112 360.077 358.839 359.93C358.569 359.78 358.364 359.583 358.224 359.34C358.087 359.097 358.019 358.83 358.019 358.54C358.019 358.257 358.072 358.012 358.179 357.805C358.289 357.595 358.442 357.422 358.639 357.285C358.836 357.145 359.071 357.035 359.344 356.955C359.601 356.885 359.887 356.825 360.204 356.775C360.524 356.722 360.847 356.673 361.174 356.63C361.501 356.587 361.806 356.545 362.089 356.505L361.769 356.69C361.779 356.21 361.682 355.855 361.479 355.625C361.279 355.395 360.932 355.28 360.439 355.28C360.112 355.28 359.826 355.355 359.579 355.505C359.336 355.652 359.164 355.892 359.064 356.225L358.219 355.97C358.349 355.497 358.601 355.125 358.974 354.855C359.347 354.585 359.839 354.45 360.449 354.45C360.939 354.45 361.359 354.538 361.709 354.715C362.062 354.888 362.316 355.152 362.469 355.505C362.546 355.672 362.594 355.853 362.614 356.05C362.634 356.243 362.644 356.447 362.644 356.66V360H361.854V358.705L362.039 358.825C361.836 359.262 361.551 359.592 361.184 359.815C360.821 360.038 360.377 360.15 359.854 360.15ZM359.989 359.405C360.309 359.405 360.586 359.348 360.819 359.235C361.056 359.118 361.246 358.967 361.389 358.78C361.532 358.59 361.626 358.383 361.669 358.16C361.719 357.993 361.746 357.808 361.749 357.605C361.756 357.398 361.759 357.24 361.759 357.13L362.069 357.265C361.779 357.305 361.494 357.343 361.214 357.38C360.934 357.417 360.669 357.457 360.419 357.5C360.169 357.54 359.944 357.588 359.744 357.645C359.597 357.692 359.459 357.752 359.329 357.825C359.202 357.898 359.099 357.993 359.019 358.11C358.942 358.223 358.904 358.365 358.904 358.535C358.904 358.682 358.941 358.822 359.014 358.955C359.091 359.088 359.207 359.197 359.364 359.28C359.524 359.363 359.732 359.405 359.989 359.405ZM367.459 360C367.139 360.063 366.822 360.088 366.509 360.075C366.199 360.065 365.922 360.003 365.679 359.89C365.436 359.773 365.251 359.593 365.124 359.35C365.017 359.137 364.959 358.922 364.949 358.705C364.942 358.485 364.939 358.237 364.939 357.96V353.1H365.829V357.92C365.829 358.14 365.831 358.328 365.834 358.485C365.841 358.642 365.876 358.777 365.939 358.89C366.059 359.103 366.249 359.228 366.509 359.265C366.772 359.302 367.089 359.292 367.459 359.235V360ZM363.844 355.335V354.6H367.459V355.335H363.844ZM371.171 360.15C370.641 360.15 370.178 360.033 369.781 359.8C369.388 359.563 369.081 359.235 368.861 358.815C368.641 358.392 368.531 357.898 368.531 357.335C368.531 356.745 368.639 356.235 368.856 355.805C369.073 355.372 369.374 355.038 369.761 354.805C370.151 354.568 370.608 354.45 371.131 354.45C371.674 354.45 372.136 354.575 372.516 354.825C372.899 355.075 373.186 355.432 373.376 355.895C373.569 356.358 373.653 356.91 373.626 357.55H372.726V357.23C372.716 356.567 372.581 356.072 372.321 355.745C372.061 355.415 371.674 355.25 371.161 355.25C370.611 355.25 370.193 355.427 369.906 355.78C369.619 356.133 369.476 356.64 369.476 357.3C369.476 357.937 369.619 358.43 369.906 358.78C370.193 359.13 370.601 359.305 371.131 359.305C371.488 359.305 371.798 359.223 372.061 359.06C372.324 358.897 372.531 358.662 372.681 358.355L373.536 358.65C373.326 359.127 373.009 359.497 372.586 359.76C372.166 360.02 371.694 360.15 371.171 360.15ZM369.176 357.55V356.835H373.166V357.55H369.176ZM379.781 360.145C379.138 360.145 378.609 360.005 378.196 359.725C377.786 359.442 377.534 359.047 377.441 358.54L378.351 358.395C378.424 358.688 378.593 358.922 378.856 359.095C379.119 359.265 379.446 359.35 379.836 359.35C380.206 359.35 380.496 359.273 380.706 359.12C380.916 358.967 381.021 358.758 381.021 358.495C381.021 358.342 380.986 358.218 380.916 358.125C380.846 358.028 380.701 357.938 380.481 357.855C380.264 357.772 379.936 357.672 379.496 357.555C379.019 357.428 378.644 357.297 378.371 357.16C378.098 357.023 377.903 356.865 377.786 356.685C377.669 356.505 377.611 356.287 377.611 356.03C377.611 355.713 377.698 355.437 377.871 355.2C378.044 354.96 378.286 354.775 378.596 354.645C378.909 354.515 379.273 354.45 379.686 354.45C380.096 354.45 380.463 354.515 380.786 354.645C381.109 354.775 381.369 354.96 381.566 355.2C381.766 355.437 381.884 355.713 381.921 356.03L381.011 356.195C380.968 355.905 380.828 355.677 380.591 355.51C380.358 355.343 380.056 355.255 379.686 355.245C379.336 355.232 379.051 355.293 378.831 355.43C378.614 355.567 378.506 355.752 378.506 355.985C378.506 356.115 378.546 356.227 378.626 356.32C378.709 356.413 378.861 356.502 379.081 356.585C379.304 356.668 379.628 356.763 380.051 356.87C380.528 356.99 380.903 357.122 381.176 357.265C381.453 357.405 381.649 357.572 381.766 357.765C381.883 357.955 381.941 358.19 381.941 358.47C381.941 358.99 381.749 359.4 381.366 359.7C380.983 359.997 380.454 360.145 379.781 360.145ZM387.389 360V357.295C387.389 357.038 387.365 356.792 387.319 356.555C387.275 356.318 387.197 356.107 387.084 355.92C386.974 355.73 386.824 355.58 386.634 355.47C386.447 355.36 386.21 355.305 385.924 355.305C385.7 355.305 385.497 355.343 385.314 355.42C385.134 355.493 384.979 355.607 384.849 355.76C384.719 355.913 384.617 356.107 384.544 356.34C384.474 356.57 384.439 356.842 384.439 357.155L383.854 356.975C383.854 356.452 383.947 356.003 384.134 355.63C384.324 355.253 384.589 354.965 384.929 354.765C385.272 354.562 385.675 354.46 386.139 354.46C386.489 354.46 386.787 354.515 387.034 354.625C387.28 354.735 387.485 354.882 387.649 355.065C387.812 355.245 387.94 355.448 388.034 355.675C388.127 355.898 388.192 356.127 388.229 356.36C388.269 356.59 388.289 356.808 388.289 357.015V360H387.389ZM383.539 360V352.8H384.339V356.775H384.439V360H383.539ZM390.189 353.645V352.725H391.079V353.645H390.189ZM390.189 360V354.6H391.079V360H390.189ZM393.594 360V354.305C393.594 354.165 393.601 354.023 393.614 353.88C393.627 353.733 393.657 353.592 393.704 353.455C393.751 353.315 393.827 353.187 393.934 353.07C394.057 352.933 394.192 352.837 394.339 352.78C394.486 352.72 394.634 352.683 394.784 352.67C394.937 352.657 395.082 352.65 395.219 352.65H395.904V353.39H395.269C395.006 353.39 394.809 353.455 394.679 353.585C394.549 353.712 394.484 353.905 394.484 354.165V360H393.594ZM392.679 355.335V354.6H395.904V355.335H392.679ZM400.217 360C399.897 360.063 399.58 360.088 399.267 360.075C398.957 360.065 398.68 360.003 398.437 359.89C398.194 359.773 398.009 359.593 397.882 359.35C397.775 359.137 397.717 358.922 397.707 358.705C397.7 358.485 397.697 358.237 397.697 357.96V353.1H398.587V357.92C398.587 358.14 398.589 358.328 398.592 358.485C398.599 358.642 398.634 358.777 398.697 358.89C398.817 359.103 399.007 359.228 399.267 359.265C399.53 359.302 399.847 359.292 400.217 359.235V360ZM396.602 355.335V354.6H400.217V355.335H396.602Z" fill="black"/>
<path d="M205.969 345.836C206.292 345.577 206.344 345.105 206.086 344.782C205.827 344.458 205.355 344.406 205.031 344.664L202.531 346.664C202.208 346.923 202.156 347.395 202.414 347.719C202.673 348.042 203.145 348.094 203.469 347.836L205.969 345.836Z" fill="#2D264B"/>
<path d="M218.969 344.664C218.645 344.406 218.173 344.458 217.914 344.782C217.656 345.105 217.708 345.577 218.031 345.836L220.531 347.836C220.855 348.094 221.327 348.042 221.586 347.719C221.844 347.395 221.792 346.923 221.469 346.664L218.969 344.664Z" fill="#2D264B"/>
<path d="M212.75 351C212.75 350.586 212.414 350.25 212 350.25C211.586 350.25 211.25 350.586 211.25 351V356C211.25 356.713 212.112 357.07 212.616 356.566L214.652 354.53C214.945 354.237 214.945 353.763 214.652 353.47C214.359 353.177 213.884 353.177 213.591 353.47L212.75 354.311V351Z" fill="#2D264B"/>
<path fill-rule="evenodd" clip-rule="evenodd" d="M212 345.25C206.063 345.25 201.25 350.063 201.25 356C201.25 361.937 206.063 366.75 212 366.75C217.937 366.75 222.75 361.937 222.75 356C222.75 350.063 217.937 345.25 212 345.25ZM202.75 356C202.75 350.891 206.891 346.75 212 346.75C217.109 346.75 221.25 350.891 221.25 356C221.25 361.109 217.109 365.25 212 365.25C206.891 365.25 202.75 361.109 202.75 356Z" fill="#2D264B"/>
<path opacity="0.6" d="M205.837 91L202.501 79.48H203.989L206.549 88.592L209.101 79.488L210.597 79.48L213.157 88.592L215.709 79.48H217.205L213.869 91H212.445L209.853 81.968L207.261 91H205.837ZM222.095 91.24C221.237 91.24 220.495 91.0453 219.871 90.656C219.253 90.2667 218.775 89.728 218.439 89.04C218.103 88.352 217.935 87.5627 217.935 86.672C217.935 85.7653 218.106 84.9707 218.447 84.288C218.789 83.6053 219.271 83.0747 219.895 82.696C220.519 82.312 221.253 82.12 222.095 82.12C222.959 82.12 223.703 82.3147 224.327 82.704C224.951 83.088 225.429 83.624 225.759 84.312C226.095 84.9947 226.263 85.7813 226.263 86.672C226.263 87.5733 226.095 88.368 225.759 89.056C225.423 89.7387 224.943 90.2747 224.319 90.664C223.695 91.048 222.954 91.24 222.095 91.24ZM222.095 89.888C222.991 89.888 223.658 89.5893 224.095 88.992C224.533 88.3947 224.751 87.6213 224.751 86.672C224.751 85.696 224.53 84.92 224.087 84.344C223.645 83.7627 222.981 83.472 222.095 83.472C221.493 83.472 220.997 83.608 220.607 83.88C220.218 84.152 219.927 84.528 219.735 85.008C219.543 85.488 219.447 86.0427 219.447 86.672C219.447 87.6427 219.671 88.4213 220.119 89.008C220.567 89.5947 221.226 89.888 222.095 89.888ZM228.825 91V82.36H230.097V84.448L229.889 84.176C229.99 83.9093 230.121 83.664 230.281 83.44C230.446 83.216 230.63 83.032 230.833 82.888C231.057 82.7067 231.31 82.568 231.593 82.472C231.875 82.376 232.163 82.32 232.457 82.304C232.75 82.2827 233.025 82.3013 233.281 82.36V83.696C232.982 83.616 232.654 83.5947 232.297 83.632C231.939 83.6693 231.609 83.8 231.305 84.024C231.027 84.2213 230.811 84.4613 230.657 84.744C230.507 85.0267 230.403 85.3333 230.345 85.664C230.286 85.9893 230.257 86.3227 230.257 86.664V91H228.825ZM235.585 91L235.593 79.48H237.033V86.52L240.657 82.36H242.505L238.689 86.68L242.953 91H240.961L237.033 86.84V91H235.585ZM247.657 91.232C246.628 91.232 245.783 91.008 245.121 90.56C244.465 90.1067 244.063 89.4747 243.913 88.664L245.369 88.432C245.487 88.9013 245.756 89.2747 246.177 89.552C246.599 89.824 247.121 89.96 247.745 89.96C248.337 89.96 248.801 89.8373 249.137 89.592C249.473 89.3467 249.641 89.0133 249.641 88.592C249.641 88.3467 249.585 88.1493 249.473 88C249.361 87.8453 249.129 87.7013 248.777 87.568C248.431 87.4347 247.905 87.2747 247.201 87.088C246.439 86.8853 245.839 86.6747 245.401 86.456C244.964 86.2373 244.652 85.984 244.465 85.696C244.279 85.408 244.185 85.0587 244.185 84.648C244.185 84.1413 244.324 83.6987 244.601 83.32C244.879 82.936 245.265 82.64 245.761 82.432C246.263 82.224 246.844 82.12 247.505 82.12C248.161 82.12 248.748 82.224 249.265 82.432C249.783 82.64 250.199 82.936 250.513 83.32C250.833 83.6987 251.023 84.1413 251.081 84.648L249.625 84.912C249.556 84.448 249.332 84.0827 248.953 83.816C248.58 83.5493 248.097 83.408 247.505 83.392C246.945 83.3707 246.489 83.4693 246.137 83.688C245.791 83.9067 245.617 84.2027 245.617 84.576C245.617 84.784 245.681 84.9627 245.809 85.112C245.943 85.2613 246.185 85.4027 246.537 85.536C246.895 85.6693 247.412 85.8213 248.089 85.992C248.852 86.184 249.452 86.3947 249.889 86.624C250.332 86.848 250.647 87.1147 250.833 87.424C251.02 87.728 251.113 88.104 251.113 88.552C251.113 89.384 250.807 90.04 250.193 90.52C249.58 90.9947 248.735 91.232 247.657 91.232ZM257.646 91.24C256.835 91.24 256.152 91.04 255.598 90.64C255.043 90.2347 254.622 89.688 254.334 89C254.051 88.3067 253.91 87.5307 253.91 86.672C253.91 85.8027 254.051 85.024 254.334 84.336C254.622 83.648 255.043 83.1067 255.598 82.712C256.158 82.3173 256.843 82.12 257.654 82.12C258.454 82.12 259.142 82.32 259.718 82.72C260.299 83.1147 260.744 83.656 261.054 84.344C261.363 85.032 261.518 85.808 261.518 86.672C261.518 87.536 261.363 88.312 261.054 89C260.744 89.688 260.299 90.2347 259.718 90.64C259.142 91.04 258.451 91.24 257.646 91.24ZM253.67 94.84V82.36H254.942V88.72H255.102V94.84H253.67ZM257.47 89.936C258.04 89.936 258.512 89.792 258.886 89.504C259.259 89.216 259.539 88.8267 259.726 88.336C259.912 87.84 260.006 87.2853 260.006 86.672C260.006 86.064 259.912 85.5147 259.726 85.024C259.544 84.5333 259.262 84.144 258.878 83.856C258.499 83.568 258.016 83.424 257.43 83.424C256.87 83.424 256.406 83.5627 256.038 83.84C255.67 84.112 255.395 84.4933 255.214 84.984C255.032 85.4693 254.942 86.032 254.942 86.672C254.942 87.3013 255.03 87.864 255.206 88.36C255.387 88.8507 255.664 89.2373 256.038 89.52C256.411 89.7973 256.888 89.936 257.47 89.936ZM266.528 91.24C265.882 91.24 265.341 91.1227 264.904 90.888C264.472 90.648 264.144 90.3333 263.92 89.944C263.701 89.5547 263.592 89.128 263.592 88.664C263.592 88.2107 263.677 87.8187 263.848 87.488C264.024 87.152 264.269 86.8747 264.584 86.656C264.898 86.432 265.274 86.256 265.712 86.128C266.122 86.016 266.581 85.92 267.088 85.84C267.6 85.7547 268.117 85.6773 268.64 85.608C269.162 85.5387 269.65 85.472 270.104 85.408L269.592 85.704C269.608 84.936 269.453 84.368 269.128 84C268.808 83.632 268.253 83.448 267.464 83.448C266.941 83.448 266.482 83.568 266.088 83.808C265.698 84.0427 265.424 84.4267 265.264 84.96L263.912 84.552C264.12 83.7947 264.522 83.2 265.12 82.768C265.717 82.336 266.504 82.12 267.48 82.12C268.264 82.12 268.936 82.2613 269.496 82.544C270.061 82.8213 270.466 83.2427 270.712 83.808C270.834 84.0747 270.912 84.3653 270.944 84.68C270.976 84.9893 270.992 85.3147 270.992 85.656V91H269.728V88.928L270.024 89.12C269.698 89.8187 269.242 90.3467 268.656 90.704C268.074 91.0613 267.365 91.24 266.528 91.24ZM266.744 90.048C267.256 90.048 267.698 89.9573 268.072 89.776C268.45 89.5893 268.754 89.3467 268.984 89.048C269.213 88.744 269.362 88.4133 269.432 88.056C269.512 87.7893 269.554 87.4933 269.56 87.168C269.57 86.8373 269.576 86.584 269.576 86.408L270.072 86.624C269.608 86.688 269.152 86.7493 268.704 86.808C268.256 86.8667 267.832 86.9307 267.432 87C267.032 87.064 266.672 87.1413 266.352 87.232C266.117 87.3067 265.896 87.4027 265.688 87.52C265.485 87.6373 265.32 87.7893 265.192 87.976C265.069 88.1573 265.008 88.384 265.008 88.656C265.008 88.8907 265.066 89.1147 265.184 89.328C265.306 89.5413 265.493 89.7147 265.744 89.848C266 89.9813 266.333 90.048 266.744 90.048ZM277.512 91.24C276.637 91.24 275.893 91.0453 275.28 90.656C274.672 90.2613 274.208 89.72 273.888 89.032C273.568 88.344 273.402 87.56 273.392 86.68C273.402 85.7787 273.57 84.9867 273.896 84.304C274.226 83.616 274.698 83.08 275.312 82.696C275.925 82.312 276.664 82.12 277.528 82.12C278.44 82.12 279.224 82.344 279.88 82.792C280.541 83.24 280.984 83.8533 281.208 84.632L279.8 85.056C279.618 84.5547 279.322 84.1653 278.912 83.888C278.506 83.6107 278.04 83.472 277.512 83.472C276.92 83.472 276.432 83.6107 276.048 83.888C275.664 84.16 275.378 84.5387 275.192 85.024C275.005 85.504 274.909 86.056 274.904 86.68C274.914 87.64 275.136 88.416 275.568 89.008C276.005 89.5947 276.653 89.888 277.512 89.888C278.077 89.888 278.546 89.76 278.92 89.504C279.293 89.2427 279.576 88.8667 279.768 88.376L281.208 88.752C280.909 89.5573 280.442 90.1733 279.808 90.6C279.173 91.0267 278.408 91.24 277.512 91.24ZM287.15 91.24C286.302 91.24 285.561 91.0533 284.926 90.68C284.297 90.3013 283.806 89.776 283.454 89.104C283.102 88.4267 282.926 87.6373 282.926 86.736C282.926 85.792 283.099 84.976 283.446 84.288C283.793 83.5947 284.275 83.0613 284.894 82.688C285.518 82.3093 286.249 82.12 287.086 82.12C287.955 82.12 288.694 82.32 289.302 82.72C289.915 83.12 290.374 83.6907 290.678 84.432C290.987 85.1733 291.121 86.056 291.078 87.08H289.638V86.568C289.622 85.5067 289.406 84.7147 288.99 84.192C288.574 83.664 287.955 83.4 287.134 83.4C286.254 83.4 285.585 83.6827 285.126 84.248C284.667 84.8133 284.438 85.624 284.438 86.68C284.438 87.6987 284.667 88.488 285.126 89.048C285.585 89.608 286.238 89.888 287.086 89.888C287.657 89.888 288.153 89.7573 288.574 89.496C288.995 89.2347 289.326 88.8587 289.566 88.368L290.934 88.84C290.598 89.6027 290.091 90.1947 289.414 90.616C288.742 91.032 287.987 91.24 287.15 91.24ZM283.958 87.08V85.936H290.342V87.08H283.958Z" fill="black"/>
<path opacity="0.6" d="M204.691 71V68.005L202.266 63.8H203.301L205.141 66.985L206.976 63.8H208.011L205.591 68.005V71H204.691ZM210.707 71.15C210.17 71.15 209.707 71.0283 209.317 70.785C208.93 70.5417 208.632 70.205 208.422 69.775C208.212 69.345 208.107 68.8517 208.107 68.295C208.107 67.7283 208.214 67.2317 208.427 66.805C208.64 66.3783 208.942 66.0467 209.332 65.81C209.722 65.57 210.18 65.45 210.707 65.45C211.247 65.45 211.712 65.5717 212.102 65.815C212.492 66.055 212.79 66.39 212.997 66.82C213.207 67.2467 213.312 67.7383 213.312 68.295C213.312 68.8583 213.207 69.355 212.997 69.785C212.787 70.2117 212.487 70.5467 212.097 70.79C211.707 71.03 211.244 71.15 210.707 71.15ZM210.707 70.305C211.267 70.305 211.684 70.1183 211.957 69.745C212.23 69.3717 212.367 68.8883 212.367 68.295C212.367 67.685 212.229 67.2 211.952 66.84C211.675 66.4767 211.26 66.295 210.707 66.295C210.33 66.295 210.02 66.38 209.777 66.55C209.534 66.72 209.352 66.955 209.232 67.255C209.112 67.555 209.052 67.9017 209.052 68.295C209.052 68.9017 209.192 69.3883 209.472 69.755C209.752 70.1217 210.164 70.305 210.707 70.305ZM216.963 71.14C216.616 71.14 216.318 71.085 216.068 70.975C215.821 70.865 215.616 70.7183 215.453 70.535C215.29 70.3517 215.161 70.1483 215.068 69.925C214.975 69.7017 214.908 69.4733 214.868 69.24C214.831 69.0067 214.813 68.7883 214.813 68.585V65.6H215.713V68.305C215.713 68.5583 215.736 68.8033 215.783 69.04C215.83 69.2767 215.908 69.49 216.018 69.68C216.131 69.87 216.281 70.02 216.468 70.13C216.658 70.24 216.895 70.295 217.178 70.295C217.401 70.295 217.605 70.2567 217.788 70.18C217.971 70.1033 218.128 69.99 218.258 69.84C218.388 69.6867 218.488 69.4933 218.558 69.26C218.628 69.0267 218.663 68.755 218.663 68.445L219.248 68.625C219.248 69.145 219.153 69.5933 218.963 69.97C218.776 70.3467 218.511 70.6367 218.168 70.84C217.828 71.04 217.426 71.14 216.963 71.14ZM218.763 71V69.555H218.663V65.6H219.558V71H218.763ZM226.235 71.15C225.688 71.15 225.223 71.0283 224.84 70.785C224.46 70.5383 224.17 70.2 223.97 69.77C223.77 69.34 223.666 68.85 223.66 68.3C223.666 67.7367 223.771 67.2417 223.975 66.815C224.181 66.385 224.476 66.05 224.86 65.81C225.243 65.57 225.705 65.45 226.245 65.45C226.815 65.45 227.305 65.59 227.715 65.87C228.128 66.15 228.405 66.5333 228.545 67.02L227.665 67.285C227.551 66.9717 227.366 66.7283 227.11 66.555C226.856 66.3817 226.565 66.295 226.235 66.295C225.865 66.295 225.56 66.3817 225.32 66.555C225.08 66.725 224.901 66.9617 224.785 67.265C224.668 67.565 224.608 67.91 224.605 68.3C224.611 68.9 224.75 69.385 225.02 69.755C225.293 70.1217 225.698 70.305 226.235 70.305C226.588 70.305 226.881 70.225 227.115 70.065C227.348 69.9017 227.525 69.6667 227.645 69.36L228.545 69.595C228.358 70.0983 228.066 70.4833 227.67 70.75C227.273 71.0167 226.795 71.15 226.235 71.15ZM230.065 71V65.6H230.86V66.905L230.73 66.735C230.794 66.5683 230.875 66.415 230.975 66.275C231.079 66.135 231.194 66.02 231.32 65.93C231.46 65.8167 231.619 65.73 231.795 65.67C231.972 65.61 232.152 65.575 232.335 65.565C232.519 65.5517 232.69 65.5633 232.85 65.6V66.435C232.664 66.385 232.459 66.3717 232.235 66.395C232.012 66.4183 231.805 66.5 231.615 66.64C231.442 66.7633 231.307 66.9133 231.21 67.09C231.117 67.2667 231.052 67.4583 231.015 67.665C230.979 67.8683 230.96 68.0767 230.96 68.29V71H230.065ZM236.538 71.15C236.008 71.15 235.545 71.0333 235.148 70.8C234.755 70.5633 234.448 70.235 234.228 69.815C234.008 69.3917 233.898 68.8983 233.898 68.335C233.898 67.745 234.006 67.235 234.223 66.805C234.44 66.3717 234.741 66.0383 235.128 65.805C235.518 65.5683 235.975 65.45 236.498 65.45C237.041 65.45 237.503 65.575 237.883 65.825C238.266 66.075 238.553 66.4317 238.743 66.895C238.936 67.3583 239.02 67.91 238.993 68.55H238.093V68.23C238.083 67.5667 237.948 67.0717 237.688 66.745C237.428 66.415 237.041 66.25 236.528 66.25C235.978 66.25 235.56 66.4267 235.273 66.78C234.986 67.1333 234.843 67.64 234.843 68.3C234.843 68.9367 234.986 69.43 235.273 69.78C235.56 70.13 235.968 70.305 236.498 70.305C236.855 70.305 237.165 70.2233 237.428 70.06C237.691 69.8967 237.898 69.6617 238.048 69.355L238.903 69.65C238.693 70.1267 238.376 70.4967 237.953 70.76C237.533 71.02 237.061 71.15 236.538 71.15ZM234.543 68.55V67.835H238.533V68.55H234.543ZM242.044 71.15C241.64 71.15 241.302 71.0767 241.029 70.93C240.759 70.78 240.554 70.5833 240.414 70.34C240.277 70.0967 240.209 69.83 240.209 69.54C240.209 69.2567 240.262 69.0117 240.369 68.805C240.479 68.595 240.632 68.4217 240.829 68.285C241.025 68.145 241.26 68.035 241.534 67.955C241.79 67.885 242.077 67.825 242.394 67.775C242.714 67.7217 243.037 67.6733 243.364 67.63C243.69 67.5867 243.995 67.545 244.279 67.505L243.959 67.69C243.969 67.21 243.872 66.855 243.669 66.625C243.469 66.395 243.122 66.28 242.629 66.28C242.302 66.28 242.015 66.355 241.769 66.505C241.525 66.6517 241.354 66.8917 241.254 67.225L240.409 66.97C240.539 66.4967 240.79 66.125 241.164 65.855C241.537 65.585 242.029 65.45 242.639 65.45C243.129 65.45 243.549 65.5383 243.899 65.715C244.252 65.8883 244.505 66.1517 244.659 66.505C244.735 66.6717 244.784 66.8533 244.804 67.05C244.824 67.2433 244.834 67.4467 244.834 67.66V71H244.044V69.705L244.229 69.825C244.025 70.2617 243.74 70.5917 243.374 70.815C243.01 71.0383 242.567 71.15 242.044 71.15ZM242.179 70.405C242.499 70.405 242.775 70.3483 243.009 70.235C243.245 70.1183 243.435 69.9667 243.579 69.78C243.722 69.59 243.815 69.3833 243.859 69.16C243.909 68.9933 243.935 68.8083 243.939 68.605C243.945 68.3983 243.949 68.24 243.949 68.13L244.259 68.265C243.969 68.305 243.684 68.3433 243.404 68.38C243.124 68.4167 242.859 68.4567 242.609 68.5C242.359 68.54 242.134 68.5883 241.934 68.645C241.787 68.6917 241.649 68.7517 241.519 68.825C241.392 68.8983 241.289 68.9933 241.209 69.11C241.132 69.2233 241.094 69.365 241.094 69.535C241.094 69.6817 241.13 69.8217 241.204 69.955C241.28 70.0883 241.397 70.1967 241.554 70.28C241.714 70.3633 241.922 70.405 242.179 70.405ZM249.649 71C249.329 71.0633 249.012 71.0883 248.699 71.075C248.389 71.065 248.112 71.0033 247.869 70.89C247.625 70.7733 247.44 70.5933 247.314 70.35C247.207 70.1367 247.149 69.9217 247.139 69.705C247.132 69.485 247.129 69.2367 247.129 68.96V64.1H248.019V68.92C248.019 69.14 248.02 69.3283 248.024 69.485C248.03 69.6417 248.065 69.7767 248.129 69.89C248.249 70.1033 248.439 70.2283 248.699 70.265C248.962 70.3017 249.279 70.2917 249.649 70.235V71ZM246.034 66.335V65.6H249.649V66.335H246.034ZM253.36 71.15C252.83 71.15 252.367 71.0333 251.97 70.8C251.577 70.5633 251.27 70.235 251.05 69.815C250.83 69.3917 250.72 68.8983 250.72 68.335C250.72 67.745 250.829 67.235 251.045 66.805C251.262 66.3717 251.564 66.0383 251.95 65.805C252.34 65.5683 252.797 65.45 253.32 65.45C253.864 65.45 254.325 65.575 254.705 65.825C255.089 66.075 255.375 66.4317 255.565 66.895C255.759 67.3583 255.842 67.91 255.815 68.55H254.915V68.23C254.905 67.5667 254.77 67.0717 254.51 66.745C254.25 66.415 253.864 66.25 253.35 66.25C252.8 66.25 252.382 66.4267 252.095 66.78C251.809 67.1333 251.665 67.64 251.665 68.3C251.665 68.9367 251.809 69.43 252.095 69.78C252.382 70.13 252.79 70.305 253.32 70.305C253.677 70.305 253.987 70.2233 254.25 70.06C254.514 69.8967 254.72 69.6617 254.87 69.355L255.725 69.65C255.515 70.1267 255.199 70.4967 254.775 70.76C254.355 71.02 253.884 71.15 253.36 71.15ZM251.365 68.55V67.835H255.355V68.55H251.365ZM259.549 71.15C259.045 71.15 258.614 71.025 258.254 70.775C257.894 70.5217 257.615 70.18 257.419 69.75C257.225 69.32 257.129 68.835 257.129 68.295C257.129 67.755 257.225 67.27 257.419 66.84C257.615 66.41 257.894 66.0717 258.254 65.825C258.614 65.575 259.044 65.45 259.544 65.45C260.054 65.45 260.482 65.5733 260.829 65.82C261.175 66.0667 261.437 66.405 261.614 66.835C261.794 67.265 261.884 67.7517 261.884 68.295C261.884 68.8317 261.794 69.3167 261.614 69.75C261.437 70.18 261.175 70.5217 260.829 70.775C260.482 71.025 260.055 71.15 259.549 71.15ZM259.659 70.335C260.022 70.335 260.32 70.2483 260.554 70.075C260.787 69.8983 260.959 69.6567 261.069 69.35C261.182 69.04 261.239 68.6883 261.239 68.295C261.239 67.895 261.182 67.5433 261.069 67.24C260.959 66.9333 260.789 66.695 260.559 66.525C260.329 66.3517 260.037 66.265 259.684 66.265C259.317 66.265 259.014 66.355 258.774 66.535C258.537 66.715 258.36 66.9583 258.244 67.265C258.13 67.5717 258.074 67.915 258.074 68.295C258.074 68.6783 258.132 69.025 258.249 69.335C258.365 69.6417 258.54 69.885 258.774 70.065C259.01 70.245 259.305 70.335 259.659 70.335ZM261.239 71V67.025H261.139V63.8H262.034V71H261.239Z" fill="black"/>
<path d="M180.326 94V88.7H167.086V85.32L176.586 65.2H180.626L171.126 85.32H180.326V77.22H183.926V85.32H186.926V88.7H183.926V94H180.326Z" fill="black"/>
<defs>
<filter id="filter0_dd_121_378" x="150" y="294" width="355" height="199" filterUnits="userSpaceOnUse" color-interpolation-filters="sRGB">
<feFlood flood-opacity="0" result="BackgroundImageFix"/>
<feColorMatrix in="SourceAlpha" type="matrix" values="0 0 0 0 0 0 0 0 0 0 0 0 0 0 0 0 0 0 127 0" result="hardAlpha"/>
<feOffset dy="7.6"/>
<feGaussianBlur stdDeviation="6.5"/>
<feColorMatrix type="matrix" values="0 0 0 0 0 0 0 0 0 0 0 0 0 0 0 0 0 0 0.035 0"/>
<feBlend mode="normal" in2="BackgroundImageFix" result="effect1_dropShadow_121_378"/>
<feColorMatrix in="SourceAlpha" type="matrix" values="0 0 0 0 0 0 0 0 0 0 0 0 0 0 0 0 0 0 127 0" result="hardAlpha"/>
<feOffset dy="38"/>
<feGaussianBlur stdDeviation="40"/>
<feColorMatrix type="matrix" values="0 0 0 0 0 0 0 0 0 0 0 0 0 0 0 0 0 0 0.07 0"/>
<feBlend mode="normal" in2="effect1_dropShadow_121_378" result="effect2_dropShadow_121_378"/>
<feBlend mode="normal" in="SourceGraphic" in2="effect2_dropShadow_121_378" result="shape"/>
</filter>
<filter id="filter1_dd_121_378" x="26" y="0" width="372" height="234" filterUnits="userSpaceOnUse" color-interpolation-filters="sRGB">
<feFlood flood-opacity="0" result="BackgroundImageFix"/>
<feColorMatrix in="SourceAlpha" type="matrix" values="0 0 0 0 0 0 0 0 0 0 0 0 0 0 0 0 0 0 127 0" result="hardAlpha"/>
<feOffset dy="7.6"/>
<feGaussianBlur stdDeviation="6.5"/>
<feColorMatrix type="matrix" values="0 0 0 0 0 0 0 0 0 0 0 0 0 0 0 0 0 0 0.035 0"/>
<feBlend mode="normal" in2="BackgroundImageFix" result="effect1_dropShadow_121_378"/>
<feColorMatrix in="SourceAlpha" type="matrix" values="0 0 0 0 0 0 0 0 0 0 0 0 0 0 0 0 0 0 127 0" result="hardAlpha"/>
<feOffset dy="38"/>
<feGaussianBlur stdDeviation="40"/>
<feColorMatrix type="matrix" values="0 0 0 0 0 0 0 0 0 0 0 0 0 0 0 0 0 0 0.07 0"/>
<feBlend mode="normal" in2="effect1_dropShadow_121_378" result="effect2_dropShadow_121_378"/>
<feBlend mode="normal" in="SourceGraphic" in2="effect2_dropShadow_121_378" result="shape"/>
</filter>
<filter id="filter2_dd_121_378" x="91" y="264" width="242" height="242" filterUnits="userSpaceOnUse" color-interpolation-filters="sRGB">
<feFlood flood-opacity="0" result="BackgroundImageFix"/>
<feColorMatrix in="SourceAlpha" type="matrix" values="0 0 0 0 0 0 0 0 0 0 0 0 0 0 0 0 0 0 127 0" result="hardAlpha"/>
<feOffset dy="5.8"/>
<feGaussianBlur stdDeviation="6.5"/>
<feColorMatrix type="matrix" values="0 0 0 0 0 0 0 0 0 0 0 0 0 0 0 0 0 0 0.035 0"/>
<feBlend mode="normal" in2="BackgroundImageFix" result="effect1_dropShadow_121_378"/>
<feColorMatrix in="SourceAlpha" type="matrix" values="0 0 0 0 0 0 0 0 0 0 0 0 0 0 0 0 0 0 127 0" result="hardAlpha"/>
<feOffset dy="29"/>
<feGaussianBlur stdDeviation="40"/>
<feColorMatrix type="matrix" values="0 0 0 0 0 0 0 0 0 0 0 0 0 0 0 0 0 0 0.07 0"/>
<feBlend mode="normal" in2="effect1_dropShadow_121_378" result="effect2_dropShadow_121_378"/>
<feBlend mode="normal" in="SourceGraphic" in2="effect2_dropShadow_121_378" result="shape"/>
</filter>
</defs>
</svg>
