<svg width="20" height="20" viewBox="0 0 20 20" fill="none" xmlns="http://www.w3.org/2000/svg">
<path d="M15.8334 3.33317H14.1667V2.49984C14.1667 2.27882 14.0789 2.06686 13.9226 1.91058C13.7663 1.7543 13.5544 1.6665 13.3334 1.6665C13.1123 1.6665 12.9004 1.7543 12.7441 1.91058C12.5878 2.06686 12.5 2.27882 12.5 2.49984V3.33317H7.50002V2.49984C7.50002 2.27882 7.41222 2.06686 7.25594 1.91058C7.09966 1.7543 6.8877 1.6665 6.66669 1.6665C6.44567 1.6665 6.23371 1.7543 6.07743 1.91058C5.92115 2.06686 5.83335 2.27882 5.83335 2.49984V3.33317H4.16669C3.50365 3.33317 2.86776 3.59656 2.39892 4.0654C1.93008 4.53424 1.66669 5.17013 1.66669 5.83317V15.8332C1.66669 16.4962 1.93008 17.1321 2.39892 17.6009C2.86776 18.0698 3.50365 18.3332 4.16669 18.3332H15.8334C16.4964 18.3332 17.1323 18.0698 17.6011 17.6009C18.07 17.1321 18.3334 16.4962 18.3334 15.8332V5.83317C18.3334 5.17013 18.07 4.53424 17.6011 4.0654C17.1323 3.59656 16.4964 3.33317 15.8334 3.33317V3.33317ZM16.6667 15.8332C16.6667 16.0542 16.5789 16.2661 16.4226 16.4224C16.2663 16.5787 16.0544 16.6665 15.8334 16.6665H4.16669C3.94567 16.6665 3.73371 16.5787 3.57743 16.4224C3.42115 16.2661 3.33335 16.0542 3.33335 15.8332V9.99984H16.6667V15.8332ZM16.6667 8.33317H3.33335V5.83317C3.33335 5.61216 3.42115 5.4002 3.57743 5.24392C3.73371 5.08763 3.94567 4.99984 4.16669 4.99984H5.83335V5.83317C5.83335 6.05418 5.92115 6.26615 6.07743 6.42243C6.23371 6.57871 6.44567 6.6665 6.66669 6.6665C6.8877 6.6665 7.09966 6.57871 7.25594 6.42243C7.41222 6.26615 7.50002 6.05418 7.50002 5.83317V4.99984H12.5V5.83317C12.5 6.05418 12.5878 6.26615 12.7441 6.42243C12.9004 6.57871 13.1123 6.6665 13.3334 6.6665C13.5544 6.6665 13.7663 6.57871 13.9226 6.42243C14.0789 6.26615 14.1667 6.05418 14.1667 5.83317V4.99984H15.8334C16.0544 4.99984 16.2663 5.08763 16.4226 5.24392C16.5789 5.4002 16.6667 5.61216 16.6667 5.83317V8.33317Z" fill="#191407"/>
</svg>
