<svg width="16" height="17" viewBox="0 0 16 17" fill="none" xmlns="http://www.w3.org/2000/svg">
<path d="M8.00004 4.50016C7.82323 4.50016 7.65366 4.5704 7.52864 4.69543C7.40361 4.82045 7.33337 4.99002 7.33337 5.16683V11.8335C7.33337 12.0103 7.40361 12.1799 7.52864 12.3049C7.65366 12.4299 7.82323 12.5002 8.00004 12.5002C8.17685 12.5002 8.34642 12.4299 8.47145 12.3049C8.59647 12.1799 8.66671 12.0103 8.66671 11.8335V5.16683C8.66671 4.99002 8.59647 4.82045 8.47145 4.69543C8.34642 4.5704 8.17685 4.50016 8.00004 4.50016ZM4.66671 8.50016C4.4899 8.50016 4.32033 8.5704 4.1953 8.69543C4.07028 8.82045 4.00004 8.99002 4.00004 9.16683V11.8335C4.00004 12.0103 4.07028 12.1799 4.1953 12.3049C4.32033 12.4299 4.4899 12.5002 4.66671 12.5002C4.84352 12.5002 5.01309 12.4299 5.13811 12.3049C5.26314 12.1799 5.33337 12.0103 5.33337 11.8335V9.16683C5.33337 8.99002 5.26314 8.82045 5.13811 8.69543C5.01309 8.5704 4.84352 8.50016 4.66671 8.50016ZM11.3334 7.16683C11.1566 7.16683 10.987 7.23707 10.862 7.36209C10.7369 7.48712 10.6667 7.65669 10.6667 7.8335V11.8335C10.6667 12.0103 10.7369 12.1799 10.862 12.3049C10.987 12.4299 11.1566 12.5002 11.3334 12.5002C11.5102 12.5002 11.6798 12.4299 11.8048 12.3049C11.9298 12.1799 12 12.0103 12 11.8335V7.8335C12 7.65669 11.9298 7.48712 11.8048 7.36209C11.6798 7.23707 11.5102 7.16683 11.3334 7.16683ZM12.6667 1.8335H3.33337C2.80294 1.8335 2.29423 2.04421 1.91916 2.41928C1.54409 2.79436 1.33337 3.30306 1.33337 3.8335V13.1668C1.33337 13.6973 1.54409 14.206 1.91916 14.581C2.29423 14.9561 2.80294 15.1668 3.33337 15.1668H12.6667C13.1971 15.1668 13.7058 14.9561 14.0809 14.581C14.456 14.206 14.6667 13.6973 14.6667 13.1668V3.8335C14.6667 3.30306 14.456 2.79436 14.0809 2.41928C13.7058 2.04421 13.1971 1.8335 12.6667 1.8335ZM13.3334 13.1668C13.3334 13.3436 13.2631 13.5132 13.1381 13.6382C13.0131 13.7633 12.8435 13.8335 12.6667 13.8335H3.33337C3.15656 13.8335 2.98699 13.7633 2.86197 13.6382C2.73695 13.5132 2.66671 13.3436 2.66671 13.1668V3.8335C2.66671 3.65669 2.73695 3.48712 2.86197 3.36209C2.98699 3.23707 3.15656 3.16683 3.33337 3.16683H12.6667C12.8435 3.16683 13.0131 3.23707 13.1381 3.36209C13.2631 3.48712 13.3334 3.65669 13.3334 3.8335V13.1668Z" fill="#191407"/>
</svg>
