<svg width="9" height="18" viewBox="0 0 9 18" fill="none" xmlns="http://www.w3.org/2000/svg">
<path d="M2.59808 18V4.836C2.59808 4.508 2.61008 4.148 2.63408 3.756C2.65808 3.356 2.72608 2.96 2.83808 2.568C2.95008 2.176 3.15408 1.82 3.45008 1.5C3.81808 1.092 4.21408 0.811999 4.63808 0.659999C5.07008 0.5 5.49408 0.411999 5.91008 0.395998C6.32608 0.371999 6.69008 0.36 7.00208 0.36H8.62208V2.712H7.12208C6.57008 2.712 6.15808 2.852 5.88608 3.132C5.62208 3.404 5.49008 3.764 5.49008 4.212V18H2.59808ZM0.51008 7.308V5.04H8.62208V7.308H0.51008Z" fill="black"/>
</svg>
