<svg width="14" height="16" viewBox="0 0 14 16" fill="none" xmlns="http://www.w3.org/2000/svg">
<path d="M7.08476 15.3C6.15143 15.3 5.27476 15.1367 4.45476 14.81C3.64143 14.4767 2.92476 13.99 2.30476 13.35C1.69143 12.71 1.21143 11.9267 0.864763 11C0.518097 10.0667 0.344763 9 0.344763 7.8C0.344763 6.22667 0.638097 4.88333 1.22476 3.77C1.81143 2.65 2.61476 1.79333 3.63476 1.2C4.65476 0.599999 5.80476 0.3 7.08476 0.3C8.8581 0.3 10.2614 0.713333 11.2948 1.54C12.3348 2.36 13.0381 3.51333 13.4048 5L10.9448 5.39C10.6714 4.53667 10.2248 3.85667 9.60476 3.35C8.98476 2.83667 8.19476 2.58 7.23476 2.58C6.2681 2.56667 5.46476 2.77667 4.82476 3.21C4.18476 3.64333 3.70143 4.25333 3.37476 5.04C3.05476 5.82667 2.89476 6.74667 2.89476 7.8C2.89476 8.85333 3.05476 9.77 3.37476 10.55C3.69476 11.3233 4.17476 11.9267 4.81476 12.36C5.46143 12.7933 6.2681 13.0167 7.23476 13.03C7.96143 13.0367 8.5981 12.9067 9.14476 12.64C9.69143 12.3667 10.1381 11.9567 10.4848 11.41C10.8314 10.8567 11.0648 10.1667 11.1848 9.34H8.64476V7.45H13.7448C13.7581 7.55667 13.7681 7.71333 13.7748 7.92C13.7814 8.12667 13.7848 8.25 13.7848 8.29C13.7848 9.65 13.5148 10.86 12.9748 11.92C12.4414 12.9733 11.6748 13.8 10.6748 14.4C9.67476 15 8.4781 15.3 7.08476 15.3Z" fill="black"/>
</svg>
