<svg width="20" height="20" viewBox="0 0 20 20" fill="none" xmlns="http://www.w3.org/2000/svg">
<path d="M18.0916 16.9085L15 13.8418C16.2001 12.3455 16.7812 10.4462 16.624 8.53458C16.4667 6.62292 15.583 4.84415 14.1546 3.56403C12.7261 2.28392 10.8615 1.59976 8.94408 1.65222C7.02668 1.70469 5.20225 2.4898 3.84593 3.84612C2.48962 5.20243 1.70451 7.02686 1.65204 8.94427C1.59957 10.8617 2.28374 12.7263 3.56385 14.1548C4.84397 15.5832 6.62273 16.4669 8.5344 16.6242C10.4461 16.7814 12.3453 16.2002 13.8416 15.0002L16.9083 18.0668C16.9858 18.1449 17.078 18.2069 17.1795 18.2492C17.281 18.2915 17.39 18.3133 17.5 18.3133C17.61 18.3133 17.7189 18.2915 17.8205 18.2492C17.922 18.2069 18.0142 18.1449 18.0916 18.0668C18.2418 17.9114 18.3258 17.7038 18.3258 17.4877C18.3258 17.2716 18.2418 17.0639 18.0916 16.9085ZM9.16665 15.0002C8.01292 15.0002 6.88511 14.658 5.92582 14.0171C4.96653 13.3761 4.21886 12.4651 3.77735 11.3992C3.33584 10.3332 3.22032 9.16036 3.4454 8.0288C3.67048 6.89725 4.22605 5.85785 5.04186 5.04204C5.85766 4.22624 6.89707 3.67066 8.02862 3.44558C9.16018 3.2205 10.3331 3.33602 11.399 3.77753C12.4649 4.21905 13.3759 4.96672 14.0169 5.92601C14.6579 6.88529 15 8.01311 15 9.16683C15 10.7139 14.3854 12.1977 13.2914 13.2916C12.1975 14.3856 10.7137 15.0002 9.16665 15.0002Z" fill="#191407"/>
</svg>
