<svg width="110" height="27" viewBox="0 0 110 27" fill="none" xmlns="http://www.w3.org/2000/svg">
<path d="M38.5471 21.3C37.4604 21.3 36.5071 21.0567 35.6871 20.57C34.8671 20.0833 34.2271 19.4133 33.7671 18.56C33.3138 17.7 33.0871 16.7133 33.0871 15.6C33.0871 14.4733 33.3204 13.4833 33.7871 12.63C34.2538 11.77 34.8971 11.1 35.7171 10.62C36.5371 10.14 37.4804 9.9 38.5471 9.9C39.6338 9.9 40.5871 10.1433 41.4071 10.63C42.2338 11.1167 42.8771 11.79 43.3371 12.65C43.7971 13.5033 44.0271 14.4867 44.0271 15.6C44.0271 16.72 43.7938 17.71 43.3271 18.57C42.8671 19.4233 42.2238 20.0933 41.3971 20.58C40.5771 21.06 39.6271 21.3 38.5471 21.3ZM38.5471 18.76C39.4204 18.76 40.0704 18.4667 40.4971 17.88C40.9304 17.2867 41.1471 16.5267 41.1471 15.6C41.1471 14.64 40.9271 13.8733 40.4871 13.3C40.0538 12.7267 39.4071 12.44 38.5471 12.44C37.9538 12.44 37.4671 12.5733 37.0871 12.84C36.7071 13.1067 36.4238 13.4767 36.2371 13.95C36.0571 14.4233 35.9671 14.9733 35.9671 15.6C35.9671 16.5667 36.1838 17.3367 36.6171 17.91C37.0571 18.4767 37.7004 18.76 38.5471 18.76ZM54.5862 21V15.9C54.5862 15.6533 54.5728 15.34 54.5462 14.96C54.5195 14.5733 54.4362 14.1867 54.2962 13.8C54.1562 13.4133 53.9262 13.09 53.6062 12.83C53.2928 12.57 52.8462 12.44 52.2662 12.44C52.0328 12.44 51.7828 12.4767 51.5162 12.55C51.2495 12.6233 50.9995 12.7667 50.7662 12.98C50.5328 13.1867 50.3395 13.4933 50.1862 13.9C50.0395 14.3067 49.9662 14.8467 49.9662 15.52L48.4062 14.78C48.4062 13.9267 48.5795 13.1267 48.9262 12.38C49.2728 11.6333 49.7928 11.03 50.4862 10.57C51.1862 10.11 52.0662 9.88 53.1262 9.88C53.9728 9.88 54.6628 10.0233 55.1962 10.31C55.7295 10.5967 56.1428 10.96 56.4362 11.4C56.7362 11.84 56.9495 12.3 57.0762 12.78C57.2028 13.2533 57.2795 13.6867 57.3062 14.08C57.3328 14.4733 57.3462 14.76 57.3462 14.94V21H54.5862ZM47.2062 21V10.2H49.6262V13.78H49.9662V21H47.2062Z" fill="black"/>
<path d="M65.161 21.3C63.801 21.3 62.701 20.9933 61.861 20.38C61.0277 19.76 60.521 18.8867 60.341 17.76L63.121 17.34C63.2343 17.8467 63.4843 18.2433 63.871 18.53C64.2643 18.8167 64.761 18.96 65.361 18.96C65.8543 18.96 66.2343 18.8667 66.501 18.68C66.7677 18.4867 66.901 18.22 66.901 17.88C66.901 17.6667 66.8477 17.4967 66.741 17.37C66.6343 17.2367 66.3943 17.1067 66.021 16.98C65.6543 16.8533 65.081 16.6867 64.301 16.48C63.421 16.2533 62.7177 16 62.191 15.72C61.6643 15.44 61.2843 15.1067 61.051 14.72C60.8177 14.3267 60.701 13.8533 60.701 13.3C60.701 12.6067 60.8777 12.0067 61.231 11.5C61.5843 10.9867 62.081 10.5933 62.721 10.32C63.3677 10.04 64.1277 9.9 65.001 9.9C65.8477 9.9 66.5977 10.03 67.251 10.29C67.9043 10.55 68.431 10.92 68.831 11.4C69.2377 11.88 69.4877 12.4467 69.581 13.1L66.801 13.6C66.7543 13.2 66.581 12.8833 66.281 12.65C65.981 12.4167 65.5743 12.28 65.061 12.24C64.561 12.2067 64.1577 12.2733 63.851 12.44C63.551 12.6067 63.401 12.8467 63.401 13.16C63.401 13.3467 63.4643 13.5033 63.591 13.63C63.7243 13.7567 63.9943 13.8867 64.401 14.02C64.8143 14.1533 65.441 14.3267 66.281 14.54C67.101 14.7533 67.7577 15.0033 68.251 15.29C68.751 15.57 69.1143 15.91 69.341 16.31C69.5677 16.7033 69.681 17.18 69.681 17.74C69.681 18.8467 69.281 19.7167 68.481 20.35C67.681 20.9833 66.5743 21.3 65.161 21.3ZM80.2385 21V15.9C80.2385 15.6533 80.2252 15.34 80.1985 14.96C80.1718 14.5733 80.0885 14.1867 79.9485 13.8C79.8085 13.4133 79.5785 13.09 79.2585 12.83C78.9452 12.57 78.4985 12.44 77.9185 12.44C77.6852 12.44 77.4352 12.4767 77.1685 12.55C76.9018 12.6233 76.6518 12.7667 76.4185 12.98C76.1852 13.1867 75.9918 13.4933 75.8385 13.9C75.6918 14.3067 75.6185 14.8467 75.6185 15.52L74.0585 14.78C74.0585 13.9267 74.2318 13.1267 74.5785 12.38C74.9252 11.6333 75.4452 11.03 76.1385 10.57C76.8385 10.11 77.7185 9.88 78.7785 9.88C79.6252 9.88 80.3152 10.0233 80.8485 10.31C81.3818 10.5967 81.7952 10.96 82.0885 11.4C82.3885 11.84 82.6018 12.3 82.7285 12.78C82.8552 13.2533 82.9318 13.6867 82.9585 14.08C82.9852 14.4733 82.9985 14.76 82.9985 14.94V21H80.2385ZM72.8585 21V6.6H75.2785V14H75.6185V21H72.8585ZM86.7934 8.7V6.3H89.5134V8.7H86.7934ZM86.7934 21V10.2H89.5134V21H86.7934ZM94.4113 21V10.24C94.4113 9.96667 94.418 9.65667 94.4313 9.31C94.4447 8.96333 94.498 8.61333 94.5913 8.26C94.6913 7.90667 94.8713 7.58667 95.1313 7.3C95.4647 6.92667 95.8247 6.67333 96.2113 6.54C96.6047 6.4 96.9847 6.32667 97.3513 6.32C97.718 6.30667 98.0313 6.3 98.2913 6.3H99.6313V8.5H98.3913C97.9647 8.5 97.648 8.61 97.4413 8.83C97.2347 9.04333 97.1313 9.3 97.1313 9.6V21H94.4113ZM92.7113 12.3V10.2H99.6313V12.3H92.7113ZM108.706 21C107.96 21.14 107.226 21.2 106.506 21.18C105.793 21.1667 105.153 21.0433 104.586 20.81C104.026 20.57 103.6 20.1867 103.306 19.66C103.04 19.1667 102.9 18.6667 102.886 18.16C102.873 17.6467 102.866 17.0667 102.866 16.42V7.2H105.586V16.26C105.586 16.68 105.59 17.06 105.596 17.4C105.61 17.7333 105.68 18 105.806 18.2C106.046 18.58 106.43 18.7867 106.956 18.82C107.483 18.8533 108.066 18.8267 108.706 18.74V21ZM101.026 12.3V10.2H108.706V12.3H101.026Z" fill="#666666"/>
<rect x="7.99927" y="4" width="14.6665" height="4.61545" rx="2.30772" fill="black"/>
<rect y="19.3848" width="18.6664" height="4.61545" rx="2.30772" fill="black"/>
<rect x="5.33301" y="11.6934" width="7.9999" height="4.61545" rx="2.30772" fill="black"/>
<rect x="16.0002" y="11.6934" width="7.9999" height="4.61545" rx="2.30772" fill="#666666"/>
</svg>
