<svg width="16" height="17" viewBox="0 0 16 17" fill="currentColor" xmlns="http://www.w3.org/2000/svg">
<path d="M12.6666 7.83317H8.66663V3.83317C8.66663 3.65636 8.59639 3.48679 8.47136 3.36177C8.34634 3.23674 8.17677 3.1665 7.99996 3.1665C7.82315 3.1665 7.65358 3.23674 7.52855 3.36177C7.40353 3.48679 7.33329 3.65636 7.33329 3.83317V7.83317H3.33329C3.15648 7.83317 2.98691 7.90341 2.86189 8.02843C2.73686 8.15346 2.66663 8.32303 2.66663 8.49984C2.66663 8.67665 2.73686 8.84622 2.86189 8.97124C2.98691 9.09627 3.15648 9.1665 3.33329 9.1665H7.33329V13.1665C7.33329 13.3433 7.40353 13.5129 7.52855 13.6379C7.65358 13.7629 7.82315 13.8332 7.99996 13.8332C8.17677 13.8332 8.34634 13.7629 8.47136 13.6379C8.59639 13.5129 8.66663 13.3433 8.66663 13.1665V9.1665H12.6666C12.8434 9.1665 13.013 9.09627 13.138 8.97124C13.2631 8.84622 13.3333 8.67665 13.3333 8.49984C13.3333 8.32303 13.2631 8.15346 13.138 8.02843C13.013 7.90341 12.8434 7.83317 12.6666 7.83317Z" fill="currentColor"/>
</svg>
