<svg width="20" height="20" viewBox="0 0 20 20" fill="none" xmlns="http://www.w3.org/2000/svg">
<path d="M7.77776 5.33335C7.77776 4.68902 8.27522 4.16669 8.88887 4.16669H11.1111C11.7247 4.16669 12.2222 4.68902 12.2222 5.33335C12.2222 5.97769 11.7247 6.50002 11.1111 6.50002H8.88887C8.27522 6.50002 7.77776 5.97769 7.77776 5.33335Z" fill="#191407"/>
<path d="M5.55554 10C5.55554 9.35569 6.053 8.83335 6.66665 8.83335H13.3333C13.947 8.83335 14.4444 9.35569 14.4444 10C14.4444 10.6444 13.947 11.1667 13.3333 11.1667H6.66665C6.053 11.1667 5.55554 10.6444 5.55554 10Z" fill="#191407"/>
<path d="M3.33331 14.6667C3.33331 14.0224 3.83077 13.5 4.44442 13.5H15.5555C16.1692 13.5 16.6666 14.0224 16.6666 14.6667C16.6666 15.311 16.1692 15.8334 15.5555 15.8334H4.44442C3.83077 15.8334 3.33331 15.311 3.33331 14.6667Z" fill="#191407"/>
</svg>
